<?xml version="1.0" encoding="UTF-8"?>
<svg id="Calque_2" data-name="Calque 2" xmlns="http://www.w3.org/2000/svg" viewBox="0 0 638.3 113.93">
  <defs>
    <style>
      .cls-1 {
        fill: #1d1d1b;

        @media (prefers-color-scheme: dark) {
          fill: #e2e2e4;
        }
      }
    </style>
  </defs>
  <g id="Calque_1-2" data-name="Calque 1">
    <g>
      <path class="cls-1" d="m297.77,82.45l-38.23-38.23,12.74-12.74,25.48,25.49,25.48-25.48c-9.35-18.67-28.66-31.49-50.96-31.49s-41.61,12.82-50.96,31.49l38.22,38.22-12.74,12.74-31.2-31.2c-.19,1.88-.28,3.78-.28,5.71,0,31.46,25.5,56.96,56.96,56.96s56.96-25.5,56.96-56.96c0-1.93-.1-3.83-.28-5.71l-31.2,31.2Z"/>
      <g>
        <path class="cls-1" d="m13.01,78.95c-4.07-2.19-7.26-5.2-9.56-9.04-2.3-3.84-3.45-8.15-3.45-12.94s1.15-9.11,3.45-12.94c2.3-3.84,5.49-6.85,9.56-9.04,4.07-2.19,8.64-3.28,13.71-3.28s9.63,1.09,13.68,3.28c4.05,2.19,7.23,5.2,9.56,9.04,2.33,3.84,3.49,8.15,3.49,12.94s-1.16,9.11-3.49,12.94c-2.33,3.84-5.51,6.85-9.56,9.04-4.05,2.19-8.61,3.28-13.68,3.28s-9.64-1.09-13.71-3.28Zm21.53-8.34c2.33-1.33,4.15-3.17,5.48-5.55,1.33-2.37,1.99-5.07,1.99-8.09s-.66-5.72-1.99-8.09c-1.33-2.37-3.15-4.22-5.48-5.55-2.33-1.33-4.93-1.99-7.82-1.99s-5.49.66-7.82,1.99c-2.33,1.33-4.15,3.17-5.48,5.55-1.33,2.37-1.99,5.07-1.99,8.09s.66,5.72,1.99,8.09c1.33,2.37,3.15,4.22,5.48,5.55,2.33,1.33,4.93,1.99,7.82,1.99s5.49-.66,7.82-1.99Z"/>
        <path class="cls-1" d="m94.38,34.7c3.19,1.44,5.64,3.49,7.36,6.14,1.72,2.65,2.58,5.79,2.58,9.42s-.86,6.71-2.58,9.39c-1.72,2.68-4.18,4.72-7.36,6.14-3.19,1.42-6.94,2.13-11.27,2.13h-9.84v13.47h-11.3v-48.85h21.14c4.33,0,8.08.72,11.27,2.16Zm-4.15,21.81c1.77-1.47,2.65-3.55,2.65-6.25s-.88-4.85-2.65-6.32c-1.77-1.47-4.35-2.2-7.75-2.2h-9.21v16.96h9.21c3.4,0,5.98-.73,7.75-2.2Z"/>
        <path class="cls-1" d="m150.17,72.32v9.07h-37.82v-48.85h36.91v9.07h-25.68v10.61h22.68v8.79h-22.68v11.3h26.59Z"/>
        <path class="cls-1" d="m203.97,32.54v48.85h-9.28l-24.35-29.66v29.66h-11.17v-48.85h9.35l24.28,29.66v-29.66h11.17Z"/>
      </g>
      <g>
        <path class="cls-1" d="m351.61,78.94c-4.07-2.19-7.26-5.2-9.56-9.03-2.3-3.84-3.45-8.15-3.45-12.94s1.15-9.1,3.45-12.94c2.3-3.84,5.49-6.85,9.56-9.03,4.07-2.19,8.64-3.28,13.71-3.28s9.63,1.09,13.67,3.28c4.05,2.19,7.23,5.2,9.56,9.03,2.32,3.84,3.49,8.15,3.49,12.94s-1.16,9.1-3.49,12.94c-2.33,3.84-5.51,6.85-9.56,9.03-4.05,2.19-8.61,3.28-13.67,3.28s-9.64-1.09-13.71-3.28Zm21.52-8.34c2.33-1.33,4.15-3.17,5.48-5.55,1.33-2.37,1.99-5.07,1.99-8.09s-.66-5.72-1.99-8.09c-1.33-2.37-3.15-4.22-5.48-5.55-2.33-1.33-4.93-1.99-7.81-1.99s-5.49.66-7.81,1.99c-2.33,1.33-4.15,3.17-5.48,5.55-1.33,2.37-1.99,5.07-1.99,8.09s.66,5.72,1.99,8.09c1.33,2.37,3.15,4.22,5.48,5.55,2.33,1.33,4.93,1.99,7.81,1.99s5.49-.66,7.81-1.99Z"/>
        <path class="cls-1" d="m431.66,81.38l-9.42-13.6h-10.39v13.6h-11.3v-48.83h21.14c4.33,0,8.08.72,11.27,2.16,3.19,1.44,5.64,3.49,7.36,6.14,1.72,2.65,2.58,5.79,2.58,9.42s-.87,6.76-2.62,9.38c-1.74,2.63-4.22,4.64-7.43,6.03l10.95,15.7h-12.14Zm-2.86-37.43c-1.77-1.47-4.35-2.2-7.74-2.2h-9.21v17.02h9.21c3.39,0,5.98-.74,7.74-2.23,1.77-1.49,2.65-3.58,2.65-6.28s-.88-4.85-2.65-6.31Z"/>
        <path class="cls-1" d="m469.61,62.2l-6.56,6.84v12.35h-11.23v-48.83h11.23v22.81l21.63-22.81h12.56l-20.23,21.77,21.42,27.07h-13.19l-15.63-19.18Z"/>
        <path class="cls-1" d="m541.26,72.31v9.07h-37.81v-48.83h36.91v9.07h-25.67v10.6h22.67v8.79h-22.67v11.3h26.58Z"/>
        <path class="cls-1" d="m581.37,81.38l-9.42-13.6h-10.39v13.6h-11.3v-48.83h21.14c4.33,0,8.08.72,11.27,2.16,3.19,1.44,5.64,3.49,7.36,6.14,1.72,2.65,2.58,5.79,2.58,9.42s-.87,6.76-2.62,9.38c-1.74,2.63-4.22,4.64-7.43,6.03l10.95,15.7h-12.14Zm-2.86-37.43c-1.77-1.47-4.35-2.2-7.74-2.2h-9.21v17.02h9.21c3.39,0,5.98-.74,7.74-2.23,1.77-1.49,2.65-3.58,2.65-6.28s-.88-4.85-2.65-6.31Z"/>
        <path class="cls-1" d="m606.38,80.65c-3.6-1.05-6.5-2.41-8.69-4.08l3.84-8.51c2.09,1.53,4.58,2.77,7.46,3.7,2.88.93,5.77,1.4,8.65,1.4,3.21,0,5.58-.48,7.12-1.43,1.53-.95,2.3-2.22,2.3-3.8,0-1.16-.45-2.13-1.36-2.9s-2.07-1.38-3.49-1.85c-1.42-.46-3.34-.98-5.76-1.53-3.72-.88-6.77-1.77-9.14-2.65-2.37-.88-4.41-2.3-6.1-4.26-1.7-1.95-2.55-4.56-2.55-7.81,0-2.84.77-5.41,2.3-7.71,1.53-2.3,3.85-4.13,6.94-5.48,3.09-1.35,6.87-2.02,11.34-2.02,3.12,0,6.16.37,9.14,1.12,2.98.74,5.58,1.81,7.81,3.21l-3.49,8.58c-4.51-2.56-9.02-3.84-13.53-3.84-3.16,0-5.5.51-7.01,1.53-1.51,1.02-2.27,2.37-2.27,4.05s.87,2.92,2.62,3.73c1.74.81,4.41,1.62,7.99,2.41,3.72.88,6.77,1.77,9.14,2.65,2.37.88,4.41,2.28,6.1,4.19,1.7,1.91,2.55,4.49,2.55,7.74,0,2.79-.78,5.34-2.34,7.64-1.56,2.3-3.9,4.13-7.01,5.48-3.12,1.35-6.91,2.02-11.37,2.02-3.86,0-7.59-.52-11.2-1.57Z"/>
      </g>
    </g>
  </g>
</svg>
